<?xml version="1.0" encoding="utf-8"?>
<!-- Generator: Adobe Illustrator 22.1.0, SVG Export Plug-In . SVG Version: 6.00 Build 0)  -->
<svg version="1.1" id="Layer_1" xmlns="http://www.w3.org/2000/svg" xmlns:xlink="http://www.w3.org/1999/xlink" x="0px" y="0px"
	 viewBox="0 0 231.3 231.3" style="enable-background:new 0 0 231.3 231.3;" xml:space="preserve">
<style type="text/css">
	.st0{fill:#C2DDED;}
	.st1{fill:#B3B3B5;}
	.st2{fill:#0D1242;}
	.st3{fill:none;stroke:#0D1242;stroke-linecap:round;stroke-linejoin:round;stroke-miterlimit:10;}
</style>
<g>
	<path class="st0" d="M227.3,85.7c-2.7-10.2-6.3-18.7-11.6-27.9s-10.9-16.5-18.4-23.9c-7.5-7.5-14.8-13.1-23.9-18.4
		c-9.2-5.3-17.6-8.8-27.9-11.6C135.3,1.2,126.2,0,115.6,0C105,0,95.9,1.2,85.7,3.9C75.5,6.7,67,10.2,57.8,15.5S41.3,26.4,33.9,33.9
		c-7.5,7.5-13.1,14.8-18.4,23.9S6.7,75.5,3.9,85.7C1.1,95.9,0,105,0,115.6s1.2,19.7,3.9,29.9c2.7,10.2,6.3,18.7,11.6,27.9
		s10.9,16.5,18.4,23.9c7.5,7.5,14.8,13.1,23.9,18.4c9.2,5.3,17.6,8.8,27.9,11.6c10.2,2.7,19.3,3.9,29.9,3.9
		c10.6,0,19.7-1.2,29.9-3.9c10.2-2.7,18.7-6.3,27.9-11.6c9.2-5.3,16.5-10.9,23.9-18.4c7.5-7.5,13.1-14.8,18.4-23.9
		c5.3-9.2,8.8-17.6,11.6-27.9s3.9-19.3,3.9-29.9S230.1,95.9,227.3,85.7z M213,141.5c-2.4,8.9-5.4,16.3-10,24.3
		c-4.6,8-9.5,14.4-16,20.9c-6.5,6.6-12.8,11.5-20.8,16.1c-8,4.6-15.4,7.7-24.3,10.1c-8.9,2.4-16.9,3.5-26.1,3.5s-17.2-1-26.1-3.4
		c-8.9-2.4-16.3-5.4-24.3-10c-8-4.6-14.4-9.5-20.9-16c-6.6-6.5-11.5-12.8-16.1-20.8c-4.6-8-7.7-15.4-10.1-24.3
		c-2.4-8.9-3.5-16.9-3.5-26.1s1-17.2,3.4-26.1c2.4-8.9,5.4-16.3,10-24.3c4.6-8,9.5-14.4,16-20.9C50.7,37.9,57,33,65,28.4
		c8-4.6,15.4-7.7,24.4-10.1c8.9-2.4,16.9-3.5,26.1-3.5s17.2,1,26.1,3.4c8.9,2.4,16.3,5.4,24.3,10c8,4.6,14.4,9.5,20.9,16
		c6.6,6.5,11.5,12.8,16.1,20.8c4.6,8,7.7,15.4,10.1,24.3c2.4,9,3.4,16.9,3.4,26.1S215.4,132.6,213,141.5z"/>
	<g>
		<path class="st1" d="M200.4,163.7l-4.5-2.6c-0.1,0.2-0.2,0.4-0.4,0.7c0,0.1-0.1,0.1-0.1,0.2l4.5,2.6c0.1,0,0.2,0.1,0.2,0.1
			c0.2,0,0.3-0.1,0.4-0.3C200.7,164.1,200.6,163.8,200.4,163.7z"/>
		<path class="st1" d="M162.3,195.2c-0.2,0.1-0.3,0.2-0.5,0.3c-0.1,0.1-0.2,0.1-0.3,0.2l2.6,4.5c0.1,0.2,0.3,0.3,0.4,0.3
			c0.1,0,0.2,0,0.3-0.1c0.2-0.1,0.3-0.4,0.2-0.7L162.3,195.2z"/>
		<path class="st1" d="M69.5,195.5c-0.1-0.1-0.2-0.1-0.3-0.2l-2.6,4.5c-0.1,0.2-0.1,0.5,0.2,0.7c0.1,0,0.2,0.1,0.2,0.1
			c0.2,0,0.3-0.1,0.4-0.3l2.6-4.5C69.9,195.7,69.7,195.6,69.5,195.5z"/>
		<path class="st1" d="M35.8,161.8c-0.1-0.1-0.2-0.3-0.2-0.4l-4.5,2.6c-0.2,0.1-0.3,0.4-0.2,0.7c0.1,0.2,0.3,0.3,0.4,0.3
			s0.2,0,0.3-0.1l4.5-2.6C35.9,162,35.8,161.9,35.8,161.8z"/>
		<path class="st1" d="M30.9,67.5l4.5,2.6c0.1-0.2,0.2-0.4,0.3-0.6c0.1-0.1,0.1-0.2,0.2-0.3l-4.5-2.6c-0.2-0.1-0.5-0.1-0.7,0.2
			C30.6,67,30.7,67.3,30.9,67.5z"/>
		<path class="st1" d="M69.1,36c0.2-0.1,0.3-0.2,0.5-0.3c0.1-0.1,0.3-0.1,0.4-0.2L67.3,31c-0.1-0.2-0.4-0.3-0.7-0.2
			c-0.2,0.1-0.3,0.4-0.2,0.7L69.1,36z"/>
		<path class="st1" d="M161.8,35.8c0.1,0,0.1,0.1,0.2,0.1l2.6-4.6c0.1-0.2,0.1-0.5-0.2-0.7c-0.2-0.1-0.5-0.1-0.7,0.2l-2.6,4.6
			C161.3,35.5,161.5,35.6,161.8,35.8z"/>
		<path class="st1" d="M195.5,69.5c0.1,0.1,0.1,0.2,0.2,0.3l4.5-2.6c0.2-0.1,0.3-0.4,0.2-0.7c-0.1-0.2-0.4-0.3-0.7-0.2l-4.5,2.6
			C195.3,69.2,195.4,69.3,195.5,69.5z"/>
	</g>
</g>
<g id="clock_numbers_1_">
	<g>
		<g>
			<path class="st2" d="M111.9,39.7v9.5h-1.6v-8h-1.8v-1.4L111.9,39.7L111.9,39.7z"/>
			<path class="st2" d="M118.8,42.2c0-0.8-0.6-1.2-1.6-1.2c-0.8,0-1.7,0.5-2.6,1.2L114,41c1.1-0.8,2.3-1.4,3.6-1.4
				c1.7,0,2.9,0.9,2.9,2.4c0,1.1-0.7,2-1.7,3.1l-2.5,2.6h4.6v1.4h-6.7V48l3.5-3.7C118.4,43.5,118.8,42.9,118.8,42.2z"/>
		</g>
	</g>
	<g>
		<g>
			<path class="st2" d="M115.6,181.7c-1.8,0-2.7,1.4-2.6,3.4c0.5-0.9,1.4-1.3,2.6-1.3c1.9,0,3,1.2,3,3c0,2-1.3,3.2-3.3,3.2
				c-2.4,0-3.8-1.7-3.8-4.6c0-3,1.6-5,4.1-5c0.9,0,2.1,0.3,2.8,0.7l-0.6,1.2C117.1,182,116.3,181.7,115.6,181.7z M113.2,186.9
				c0,0.8,0.6,1.8,2,1.8c1.1,0,1.9-0.7,1.9-1.8s-0.7-1.7-1.8-1.7C114,185.1,113.2,185.9,113.2,186.9z"/>
		</g>
	</g>
	<g>
		<g>
			<path class="st2" d="M43.8,117.6c1.8,0,2.7-1.4,2.6-3.4c-0.5,0.9-1.4,1.3-2.6,1.3c-1.9,0-3-1.2-3-3c0-2,1.3-3.2,3.3-3.2
				c2.4,0,3.8,1.7,3.8,4.6c0,3-1.6,5-4.1,5c-0.9,0-2-0.3-2.8-0.7l0.6-1.2C42.3,117.4,43.1,117.6,43.8,117.6z M46.2,112.5
				c0-0.8-0.6-1.8-2-1.8c-1.1,0-1.9,0.7-1.9,1.8c0,1.1,0.7,1.7,1.8,1.7C45.4,114.3,46.2,113.4,46.2,112.5z"/>
		</g>
	</g>
	<line class="st3" x1="114.9" y1="213" x2="114.9" y2="197.2"/>
	<line class="st3" x1="114.9" y1="33.9" x2="114.9" y2="18.1"/>
	<line class="st3" x1="18.2" y1="115" x2="33.9" y2="115"/>
	<line class="st3" x1="197.2" y1="115" x2="212.9" y2="115"/>
	<g>
		<g>
			<path class="st2" d="M188.6,115.9c0,1.8-1.3,3-3.4,3c-1.2,0-2.4-0.4-3.2-1l0.7-1.3c0.7,0.6,1.6,1,2.4,1c1.3,0,2-0.6,2-1.6
				s-0.7-1.6-2-1.6h-1.3v-0.9l2.5-2.6h-3.8v-1.4h5.8v1l-2.7,2.9l0.5,0.1C187.5,113.5,188.6,114.4,188.6,115.9z"/>
		</g>
	</g>
</g>
</svg>
